<svg width="101" height="100" viewBox="0 0 101 100" fill="none" xmlns="http://www.w3.org/2000/svg">
<g clip-path="url(#clip0_117_62)">
<path d="M34.3635 6.52539L23.5225 9.22852L15.0527 28.9648L21.566 33.3008L26.9385 22.5781L30.2744 23.5352L27.3259 52.8516H56.2568L58.0568 35.6836L58.2329 34.1016H59.1133L58.0568 23.5352L61.4024 22.5781L66.7632 33.3008L73.2784 28.9648L64.8067 9.22852L53.9677 6.52539C52.8916 7.28125 51.5807 7.73828 50.1525 8.07813C48.3134 8.50977 46.2395 8.71094 44.1656 8.71094C42.0917 8.71094 40.0178 8.50977 38.1787 8.07813C36.7504 7.73828 35.4396 7.2832 34.3635 6.52539ZM61.4024 37.6172L61.1089 40.3516H96.0913L95.7978 37.6172H61.4024ZM60.7372 43.8672L55.5133 93.4766H67.7806L76.8784 51.1133H80.3218L89.4196 93.4766H101.687L96.463 43.8672H60.7372Z" fill="#F9C718"/>
</g>
<defs>
<clipPath id="clip0_117_62">
<rect width="100.173" height="100" fill="white" transform="translate(0.269531)"/>
</clipPath>
</defs>
</svg>
