<svg width="40" height="40" viewBox="0 0 40 40" fill="none" xmlns="http://www.w3.org/2000/svg">
<rect width="40" height="40" rx="5" fill="#F6F5F5"/>
<path d="M15.1249 10.0834H23.8749C27.2083 10.0834 29.9166 12.7917 29.9166 16.125V24.875C29.9166 26.4774 29.2801 28.0141 28.147 29.1471C27.014 30.2802 25.4773 30.9167 23.8749 30.9167H15.1249C11.7916 30.9167 9.08325 28.2084 9.08325 24.875V16.125C9.08325 14.5227 9.71978 12.986 10.8528 11.8529C11.9858 10.7199 13.5226 10.0834 15.1249 10.0834ZM14.9166 12.1667C13.922 12.1667 12.9682 12.5618 12.2649 13.2651C11.5617 13.9683 11.1666 14.9221 11.1666 15.9167V25.0834C11.1666 27.1563 12.8437 28.8334 14.9166 28.8334H24.0833C25.0778 28.8334 26.0316 28.4383 26.7349 27.735C27.4382 27.0318 27.8333 26.0779 27.8333 25.0834V15.9167C27.8333 13.8438 26.1562 12.1667 24.0833 12.1667H14.9166ZM24.9687 13.7292C25.314 13.7292 25.6452 13.8664 25.8894 14.1106C26.1336 14.3548 26.2708 14.686 26.2708 15.0313C26.2708 15.3766 26.1336 15.7078 25.8894 15.952C25.6452 16.1962 25.314 16.3334 24.9687 16.3334C24.6233 16.3334 24.2921 16.1962 24.048 15.952C23.8038 15.7078 23.6666 15.3766 23.6666 15.0313C23.6666 14.686 23.8038 14.3548 24.048 14.1106C24.2921 13.8664 24.6233 13.7292 24.9687 13.7292ZM19.4999 15.2917C20.8813 15.2917 22.206 15.8404 23.1828 16.8172C24.1595 17.7939 24.7083 19.1187 24.7083 20.5C24.7083 21.8814 24.1595 23.2061 23.1828 24.1829C22.206 25.1596 20.8813 25.7084 19.4999 25.7084C18.1186 25.7084 16.7938 25.1596 15.8171 24.1829C14.8403 23.2061 14.2916 21.8814 14.2916 20.5C14.2916 19.1187 14.8403 17.7939 15.8171 16.8172C16.7938 15.8404 18.1186 15.2917 19.4999 15.2917ZM19.4999 17.375C18.6711 17.375 17.8763 17.7043 17.2902 18.2903C16.7042 18.8764 16.3749 19.6712 16.3749 20.5C16.3749 21.3288 16.7042 22.1237 17.2902 22.7098C17.8763 23.2958 18.6711 23.625 19.4999 23.625C20.3287 23.625 21.1236 23.2958 21.7096 22.7098C22.2957 22.1237 22.6249 21.3288 22.6249 20.5C22.6249 19.6712 22.2957 18.8764 21.7096 18.2903C21.1236 17.7043 20.3287 17.375 19.4999 17.375Z" fill="#162DA5"/>
</svg>
