<svg width="26" height="26" viewBox="0 0 26 26" fill="none" xmlns="http://www.w3.org/2000/svg">
<rect x="0.399902" y="0.399902" width="25" height="25" rx="8" fill="#F6F5F5"/>
<path d="M18.9416 3.5249C19.4941 3.5249 20.024 3.7444 20.4147 4.1351C20.8054 4.5258 21.0249 5.0557 21.0249 5.60824V20.1916C21.0249 20.7441 20.8054 21.274 20.4147 21.6647C20.024 22.0554 19.4941 22.2749 18.9416 22.2749H4.35824C3.8057 22.2749 3.2758 22.0554 2.8851 21.6647C2.4944 21.274 2.2749 20.7441 2.2749 20.1916V5.60824C2.2749 5.0557 2.4944 4.5258 2.8851 4.1351C3.2758 3.7444 3.8057 3.5249 4.35824 3.5249H18.9416ZM18.4207 19.6707V14.1499C18.4207 13.2493 18.063 12.3855 17.4261 11.7487C16.7893 11.1118 15.9255 10.7541 15.0249 10.7541C14.1395 10.7541 13.1082 11.2957 12.6082 12.1082V10.952H9.70199V19.6707H12.6082V14.5353C12.6082 13.7332 13.2541 13.077 14.0562 13.077C14.4429 13.077 14.8139 13.2306 15.0873 13.5041C15.3608 13.7776 15.5145 14.1485 15.5145 14.5353V19.6707H18.4207ZM6.31657 9.31657C6.7807 9.31657 7.22582 9.13219 7.55401 8.80401C7.88219 8.47582 8.06657 8.0307 8.06657 7.56657C8.06657 6.59782 7.28532 5.80615 6.31657 5.80615C5.84968 5.80615 5.40191 5.99162 5.07177 6.32177C4.74162 6.65191 4.55615 7.09968 4.55615 7.56657C4.55615 8.53532 5.34782 9.31657 6.31657 9.31657ZM7.76449 19.6707V10.952H4.87907V19.6707H7.76449Z" fill="#162DA5"/>
</svg>
