<svg width="25" height="25" viewBox="0 0 25 25" fill="none" xmlns="http://www.w3.org/2000/svg">
<path d="M23.3959 6.24996C22.5938 6.61454 21.7292 6.85413 20.8334 6.96871C21.7501 6.41663 22.4584 5.54163 22.7917 4.48954C21.9272 5.01038 20.9688 5.37496 19.9584 5.58329C19.1355 4.68746 17.9792 4.16663 16.6667 4.16663C14.2188 4.16663 12.2188 6.16663 12.2188 8.63538C12.2188 8.98954 12.2605 9.33329 12.3334 9.65621C8.62508 9.46871 5.323 7.68746 3.12508 4.98954C2.73966 5.64579 2.52091 6.41663 2.52091 7.22913C2.52091 8.78121 3.30216 10.1562 4.5105 10.9375C3.77091 10.9375 3.08341 10.7291 2.47925 10.4166C2.47925 10.4166 2.47925 10.4166 2.47925 10.4479C2.47925 12.6145 4.02091 14.427 6.06258 14.8333C5.68758 14.9375 5.29175 14.9895 4.8855 14.9895C4.60425 14.9895 4.323 14.9583 4.05216 14.9062C4.61466 16.6666 6.25008 17.9791 8.21883 18.0104C6.698 19.2187 4.77091 19.927 2.66675 19.927C2.31258 19.927 1.95841 19.9062 1.60425 19.8645C3.58341 21.1354 5.93758 21.875 8.45841 21.875C16.6667 21.875 21.1772 15.0625 21.1772 9.15621C21.1772 8.95829 21.1772 8.77079 21.1667 8.57288C22.0417 7.94788 22.7917 7.15621 23.3959 6.24996Z" fill="#162DA5"/>
</svg>
