<svg width="101" height="100" viewBox="0 0 101 100" fill="none" xmlns="http://www.w3.org/2000/svg">
<path d="M75.6775 12.5C76.6998 12.5001 77.6865 12.8748 78.4505 13.553C79.2145 14.2311 79.7025 15.1656 79.8222 16.1792L79.8514 16.6667V83.3333C79.8502 84.3953 79.4428 85.4168 78.7125 86.189C77.9822 86.9613 76.9841 87.426 75.9221 87.4882C74.8601 87.5504 73.8143 87.2055 72.9986 86.5239C72.1828 85.8423 71.6585 84.8754 71.5328 83.8208L71.5036 83.3333V62.5H67.3297C66.3074 62.4999 65.3207 62.1252 64.5567 61.447C63.7927 60.7689 63.3047 59.8344 63.185 58.8208L63.1558 58.3333V33.3333C63.1558 24.125 69.4167 12.5 75.6775 12.5ZM50.6342 12.5C51.6565 12.5001 52.6432 12.8748 53.4072 13.553C54.1712 14.2311 54.6592 15.1656 54.7788 16.1792L54.8081 16.6667V37.5C54.8076 41.1953 53.5775 44.7857 51.3111 47.7074C49.0446 50.6291 45.8702 52.7165 42.2864 53.6417V83.3333C42.2852 84.3953 41.8779 85.4168 41.1476 86.189C40.4173 86.9613 39.4191 87.426 38.3571 87.4882C37.2951 87.5504 36.2494 87.2055 35.4336 86.5239C34.6178 85.8423 34.0935 84.8754 33.9679 83.8208L33.9386 83.3333V53.6417C30.4971 52.7535 27.4291 50.7925 25.1809 48.0438C22.9326 45.2951 21.6214 41.9022 21.4379 38.3583L21.417 37.5V16.6667C21.4182 15.6047 21.8255 14.5832 22.5558 13.811C23.2861 13.0387 24.2843 12.574 25.3463 12.5118C26.4083 12.4495 27.454 12.7945 28.2698 13.4761C29.0856 14.1577 29.6099 15.1246 29.7355 16.1792L29.7648 16.6667V37.5C29.7648 38.9628 30.1505 40.3998 30.8832 41.6665C31.6159 42.9333 32.6697 43.9853 33.9386 44.7167V16.6667C33.9398 15.6047 34.3472 14.5832 35.0775 13.811C35.8078 13.0387 36.8059 12.574 37.8679 12.5118C38.9299 12.4495 39.9757 12.7945 40.7915 13.4761C41.6073 14.1577 42.1315 15.1246 42.2572 16.1792L42.2864 16.6667L42.2906 44.7167C43.4554 44.0446 44.4401 43.1014 45.1611 41.9674C45.882 40.8335 46.3177 39.5424 46.4311 38.2042L46.4603 37.5V16.6667C46.4603 15.5616 46.9 14.5018 47.6828 13.7204C48.4656 12.939 49.5272 12.5 50.6342 12.5Z" fill="#F9C718"/>
</svg>
