<svg width="101" height="100" viewBox="0 0 101 100" fill="none" xmlns="http://www.w3.org/2000/svg">
<path d="M60.8597 16V82H12.7766V16H60.8597ZM68.8736 8H4.7627V92H68.8736V8ZM18.7869 24H54.8493V32H18.7869V24ZM18.7869 38H54.8493V46H18.7869V38ZM18.7869 52H54.8493V60H18.7869V52ZM18.7869 66H54.8493V74H18.7869V66ZM80.8943 24H96.9221V80H80.8943V24ZM88.9202 2C84.5246 2 80.8943 5.53 80.8943 9.874V18H96.9221V9.874C96.9221 5.53 93.2978 2 88.9202 2ZM80.7701 86L88.8661 98.774L96.9221 86H80.7701Z" fill="#F9C718"/>
</svg>
